<?xml version="1.0" encoding="utf-8" ?>
<svg xmlns="http://www.w3.org/2000/svg" xmlns:xlink="http://www.w3.org/1999/xlink" width="1024" height="1024">
	<path fill="#273FA2" d="M861.105 291.63C867.839 295.355 873.31 300.752 878.679 306.192C896.777 324.527 910.272 345.581 917.381 370.505C919.126 376.624 920.367 382.845 921.136 389.16C921.915 395.55 921.869 402.575 924.067 408.666C926.35 414.994 931.285 420.293 934.443 426.235C943.55 443.37 949.999 461.814 953.554 480.889C957.876 504.081 956.818 528.153 956.816 551.645L956.8 634.689L956.928 696.003C956.989 711.221 957.638 726.845 955.778 741.974C953.971 756.672 949.483 770.294 942.247 783.219C927.87 808.898 903.844 828.757 875.376 836.709C847.951 844.369 816.615 841.51 791.655 827.428C771.381 815.989 755.596 797.574 738.897 781.732C731.998 775.187 722.917 768.418 717.53 760.635C721.916 762.581 725.942 765.644 729.995 768.21C734.422 771.014 739.05 773.437 743.84 775.562C771.87 787.994 805.018 790.245 833.772 778.996C860.926 768.372 883.022 747.199 894.518 720.376C898.948 710.039 901.253 699.165 902.117 687.981C903.411 671.226 902.577 653.995 902.529 637.184L902.48 551.723L902.506 475.528C902.534 457.264 903.568 438.444 900.717 420.354C898.391 405.596 891.242 393.1 887.086 379.031C883.007 365.222 882.34 350.531 878.801 336.53C876.269 326.517 872.733 316.598 868.439 307.206C866.125 302.146 863.334 297.243 861.278 292.076L861.105 291.63Z"/>
	<path fill="#78158B" d="M627.102 287.118C633.953 278.584 641.288 270.356 649.48 263.081C677.327 238.349 714.967 224.351 752.287 226.627C786.755 228.73 818.698 244.238 842.505 269.094C849.306 276.195 854.638 284.292 861.105 291.63L861.278 292.076C863.334 297.243 866.125 302.146 868.439 307.206C872.733 316.598 876.269 326.517 878.801 336.53C882.34 350.531 883.007 365.222 887.086 379.031C891.242 393.1 898.391 405.596 900.717 420.354C903.568 438.444 902.534 457.264 902.506 475.528L902.48 551.723L902.529 637.184C902.577 653.995 903.411 671.226 902.117 687.981C901.253 699.165 898.948 710.039 894.518 720.376C883.022 747.199 860.926 768.372 833.772 778.996C805.018 790.245 771.87 787.994 743.84 775.562C739.05 773.437 734.422 771.014 729.995 768.21C725.942 765.644 721.916 762.581 717.53 760.635C705.436 750.39 695.784 738.931 687.378 725.562L413.178 726.002C408.466 761.801 389.868 793.776 361.121 815.798C334.179 836.438 299.468 845.452 265.889 840.807C233.864 836.376 204.591 816.944 185.347 791.359C180.079 784.355 175.002 777.002 171.092 769.147C168.321 765.877 164.198 763.265 160.916 760.471C155.812 756.125 151.15 751.184 146.918 745.99C134.746 731.052 127.245 713.681 124.062 694.708C120.868 675.665 122.394 655.951 122.444 636.732L122.496 548.967L122.428 475.751C122.306 457.949 121.025 440.149 123.757 422.459C126.321 405.859 132.566 389.387 139.796 374.259C142.022 369.601 145.888 365.309 147.25 360.291C148.968 353.96 148.373 347.335 149.052 340.869C152.448 308.547 170.869 277.67 195.966 257.429C224.464 234.444 262.296 224.55 298.469 228.45C338.918 232.81 372.548 255.997 397.44 287.06L627.102 287.118Z"/>
	<path fill="#273FA2" d="M305.778 245.797C333.834 249.802 359.797 267.109 378.435 287.881C366.521 286.86 353.722 286.145 342.504 290.954C340.159 289.621 337.72 288.353 335.433 286.929C332.23 270.45 317.616 256.792 305.778 245.797Z"/>
	<path fill="#273FA2" d="M779.053 246.319C811.017 256.532 837.223 278.156 852.62 308.122C857.759 318.123 860.818 328.591 863.888 339.337C848.947 323.723 833.991 308.266 815.472 296.84C809.981 293.452 804.055 291.093 798.543 287.897C794.291 274.041 784.001 260.955 779.053 246.319Z"/>
	<path fill="#273FA2" d="M436.98 536.469C445.895 543.739 452.171 553.759 453.326 565.336C454.457 576.667 450.995 587.519 443.755 596.273C436.514 605.029 426.436 610.917 415.024 611.973C403.538 613.035 392.073 609.049 383.278 601.7C378.915 598.055 375.346 593.528 372.581 588.57C378.845 590.32 385.118 591.913 391.666 591.911C403.88 591.907 414.963 587.046 423.532 578.419C435.376 566.496 437.102 552.526 436.98 536.469Z"/>
	<path fill="#A63ECF" d="M651.565 304.363C655.126 303.809 659.007 304.131 662.617 304.174C654.801 310.675 646.982 317.108 640.102 324.626C621.207 345.271 609.308 373.134 606.813 400.95C603.46 438.329 613.711 477.074 638.055 506.089C649.2 519.373 662.283 529.43 677.024 538.317L676.994 595.007C673.712 594.973 670.392 595.036 667.116 594.85C673.12 579.39 674.118 562.408 667.275 546.981C659.998 530.577 645.282 520.04 628.972 513.699C628.613 511.493 620.297 500.215 618.701 497.433C606.974 476.981 599.593 454.653 597.819 431.065C595.109 395.031 605.442 357.824 628.144 329.458C635.262 320.564 643.939 313.368 651.232 304.764L651.565 304.363Z"/>
	<path fill="#273FA2" d="M629.597 529.717C640.598 534.6 649.426 542.904 653.845 554.246C658.062 565.071 658.071 576.71 653.239 587.35C648.416 597.97 639.05 606.378 628.115 610.372C617.623 614.204 606.252 613.714 596.132 609.001C586.7 604.608 577.731 595.856 574.132 585.967C573.729 584.86 573.298 583.667 573.155 582.493C586.324 586.93 592.221 594.15 607.746 588.753C617.706 585.29 625.754 576.989 630.228 567.586C636.553 554.293 634.426 543.043 629.597 529.717Z"/>
	<path fill="#6647FE" d="M573.155 582.493C572.966 582.084 572.777 581.675 572.6 581.262C568.887 572.589 569.449 561.813 573.064 553.215C577.642 542.327 586.524 533.679 597.476 529.282C607.819 525.13 619.374 525.418 629.597 529.717C634.426 543.043 636.553 554.293 630.228 567.586C625.754 576.989 617.706 585.29 607.746 588.753C592.221 594.15 586.324 586.93 573.155 582.493Z"/>
	<path fill="#6647FE" d="M372.581 588.57C369.918 583.82 368.155 578.925 367.464 573.509C366.024 562.231 369.215 550.43 376.234 541.479C382.818 533.083 393.273 527.305 403.866 526.042C416.597 524.523 427.124 528.734 436.98 536.469C437.102 552.526 435.376 566.496 423.532 578.419C414.963 587.046 403.88 591.907 391.666 591.911C385.118 591.913 378.845 590.32 372.581 588.57Z"/>
	<path fill="#6647FE" d="M646.171 286.96C656.591 275.676 668.038 266.111 681.258 258.22C711.937 239.909 745.022 237.826 779.053 246.319C784.001 260.955 794.291 274.041 798.543 287.897C794.863 286.502 791.168 285.15 787.432 283.908C747.326 270.581 711.847 276.766 674.941 295.236C665.788 287.807 657.52 287.434 646.171 286.96Z"/>
	<path fill="#FCF5FE" d="M724.288 252.593C725.837 252.433 727.463 252.347 729.018 252.467C730.734 252.599 733.001 253.721 734.025 255.125C734.795 256.181 735.233 257.273 734.934 258.597C734.544 260.325 732.985 261.74 731.446 262.488C727.587 264.365 722.199 264.866 717.978 265.8C709.523 267.669 701.831 270.191 694.158 274.243C693.721 274.444 693.284 274.645 692.84 274.83C690.748 275.703 688.811 275.791 686.736 274.749C685.613 274.185 684.823 273.499 684.585 272.199C684.334 270.828 684.936 269.267 685.674 268.14C691.719 258.902 713.988 254.782 724.288 252.593Z"/>
	<path fill="#6647FE" d="M163.916 341.546C164.425 339.631 164.891 337.705 165.378 335.785C173.737 302.801 189.091 277.1 218.967 259.496C244.017 244.736 277.399 238.522 305.778 245.797C317.616 256.792 332.23 270.45 335.433 286.929C314.684 278.906 293.407 273.855 270.994 275.965C238.867 278.99 207.698 296.809 184.572 318.796C177.103 325.897 170.502 333.633 163.916 341.546Z"/>
	<path fill="#FCF5FE" d="M263.826 253.209C266.372 252.939 269.356 252.939 271.884 253.376C273.725 253.694 276.104 255.057 276.959 256.779C277.49 257.849 277.513 258.954 276.97 260.022C276.24 261.456 274.81 262.071 273.387 262.563C267.725 264.518 261.625 265.349 255.815 266.804C246.006 269.262 236.36 272.675 227.182 276.911C224.619 277.999 219.328 279.653 216.686 278.337C215.49 277.741 215.455 277.385 215.055 276.204C215.281 274.027 216.274 272.446 217.705 270.812C227.287 259.873 250.001 254.387 263.826 253.209Z"/>
	<path fill="#A63ECF" d="M881.445 429.885C884.417 445.258 882.648 461.679 882.589 477.249L882.581 550.685L882.996 637.138C883.089 654.734 884.229 673.148 881.915 690.624C880.248 703.208 875.39 716.22 868.314 726.766C855.189 746.327 834.334 760.154 811.188 764.601C784.919 769.648 756.794 763.98 734.72 748.751C720.001 738.597 701.212 719.257 698.027 700.937C697.907 700.249 697.837 699.577 697.816 698.879C703.419 705.086 707.016 712.86 713 718.991C724.786 731.066 741.648 738.252 758.524 738.28C783.906 738.321 810.842 726.557 828.641 708.566C860.435 676.432 862.619 633.574 862.924 591.119L862.944 537.07C853.592 543.272 844.772 549.933 835.069 555.65C789.117 582.725 745.443 588.998 692.991 592.56L693.001 545.885C723.899 559.032 760.542 559.971 791.9 547.428C827.439 533.213 856.148 505.221 871.101 469.938C876.481 457.243 879.894 443.578 881.445 429.885Z"/>
	<path fill="#D294F8" d="M862.944 537.07L862.924 591.119C862.619 633.574 860.435 676.432 828.641 708.566C810.842 726.557 783.906 738.321 758.524 738.28C741.648 738.252 724.786 731.066 713 718.991C707.016 712.86 703.419 705.086 697.816 698.879C695.753 693.586 694.334 688.409 693.63 682.761C692.223 671.482 692.93 659.842 692.947 648.491L692.991 592.56C745.443 588.998 789.117 582.725 835.069 555.65C844.772 549.933 853.592 543.272 862.944 537.07Z"/>
	<path fill="#FCF5FE" d="M719.767 597.974C720.493 598.033 721.168 598.134 721.883 598.274C724.308 598.752 726.441 599.63 727.754 601.86C730.017 605.703 729.838 656.816 727.727 661.93C726.895 663.945 724.203 664.972 722.37 665.892C718.156 665.384 716.314 663.869 713.572 660.715C712.785 652.692 711.584 606.597 714.375 601.605C715.533 599.535 717.701 598.832 719.767 597.974Z"/>
	<path fill="#FCF5FE" d="M736.404 675.26C746.047 675.208 755.963 674.682 765.576 675.237C767.351 675.34 770.904 675.444 771.958 677.081C773.828 679.983 773.253 703.01 772.094 706.951C761.541 710.085 747.101 708.012 736.003 708.022C736.025 700.848 734.777 680.844 736.404 675.26Z"/>
	<path fill="#273FA2" d="M350.017 669.196C385.394 669.786 420.76 669.169 456.138 669.151L673.532 669.183C673.267 689.303 677.695 707.901 687.378 725.562L413.178 726.002C408.466 761.801 389.868 793.776 361.121 815.798C334.179 836.438 299.468 845.452 265.889 840.807C233.864 836.376 204.591 816.944 185.347 791.359C180.079 784.355 175.002 777.002 171.092 769.147C176.614 770.699 182.574 774.444 187.875 776.834C202.566 783.457 218.542 787.139 234.673 787.357C264.879 787.765 294.496 775.596 316.004 754.51C339.829 731.153 349.745 702.126 350.017 669.196Z"/>
	<path fill="#D294F8" d="M141.52 446.965C140.659 442.141 140.22 434.345 141.885 429.724L142.477 429.942L142.168 428.371C142.729 429.637 145.289 448.582 146.266 452.511C152.123 476.049 165.639 495.947 184.663 510.919C190.127 515.219 196.248 519.491 202.775 522.007C205.4 523.019 208.718 524.236 211.545 523.903C219.004 527.643 226.372 532.075 234.131 535.141C260.526 545.57 291.061 546.374 317.981 537.454C322.69 535.893 327.361 534.185 332.027 532.501L332.597 624.29C332.738 648.284 335.36 676.093 328.75 699.356C324.349 714.846 314.724 729.467 303.388 740.766C284.877 759.215 259.897 769.183 233.767 769.004C210.33 768.843 185.298 758.182 168.832 741.504C167.638 740.294 166.397 738.925 165.629 737.408C156.065 726.014 147.507 711.667 144.351 696.961C141.112 681.872 141.97 666.115 142.001 650.769L142.038 603.739L141.52 446.965Z"/>
	<path fill="#FCF5FE" d="M187.009 672.504L221.989 672.504L221.976 713.503C210.204 713.521 198.77 713.653 187.007 712.908L187.009 672.504Z"/>
	<path fill="#FCF5FE" d="M164.049 537.708C167.373 539.774 176.513 550.149 180.643 553.816C181.135 572.761 180.615 591.708 180.551 610.656C180.509 622.96 182.667 654.543 179.014 664.377C177.07 665.778 175.147 666.722 172.712 666.862C170.639 666.982 168.095 666.573 166.608 664.967C164.698 662.905 164.431 660.476 164.163 657.773C163.009 646.147 163.955 630.268 163.972 618.238L164.049 537.708Z"/>
	<path fill="#A63ECF" d="M141.52 446.965C140.659 442.141 140.22 434.345 141.885 429.724L142.477 429.942L142.168 428.371C142.729 429.637 145.289 448.582 146.266 452.511C152.123 476.049 165.639 495.947 184.663 510.919C190.127 515.219 196.248 519.491 202.775 522.007C205.4 523.019 208.718 524.236 211.545 523.903C219.004 527.643 226.372 532.075 234.131 535.141C260.526 545.57 291.061 546.374 317.981 537.454C322.69 535.893 327.361 534.185 332.027 532.501L332.597 624.29C332.738 648.284 335.36 676.093 328.75 699.356C324.349 714.846 314.724 729.467 303.388 740.766C284.877 759.215 259.897 769.183 233.767 769.004C210.33 768.843 185.298 758.182 168.832 741.504C167.638 740.294 166.397 738.925 165.629 737.408C167.604 735.223 169.114 732.411 170.695 729.92C180.014 734.094 188.713 736.808 199.001 737.109C225.354 737.878 251.285 725.14 269.997 707.159C302.21 676.205 310.069 632.187 310.993 589.485C304.397 590.633 298.054 591.179 291.357 591.185C294.237 586.763 298.206 582.718 301.654 578.715C306.625 572.946 311.481 567.099 316.296 561.199L317.074 553.724C287.945 561.202 256.318 560.394 227.9 550.422C191.254 537.562 162.014 510.566 148.621 473.846C146.421 467.815 143.698 451.128 141.881 447.625C141.765 447.403 141.64 447.185 141.52 446.965Z"/>
	<path fill="#FCF5FE" d="M672.042 517.759C665.901 513.676 660.281 508.753 655.285 503.336C632.02 478.104 618.817 445.784 620.2 411.249C621.56 377.279 635.88 346.685 660.944 323.685C685.017 301.595 717.827 289.887 750.442 291.44C787.408 293.201 815.089 311.298 839.228 337.973C859.087 361.276 867.956 395.171 865.629 425.279C863.08 458.272 847.549 489.931 822.247 511.463C798.187 531.938 765.881 543.309 734.245 540.699C716.867 539.265 685.016 530.131 672.042 517.759Z"/>
	<path fill="#78158B" d="M679.621 379.625C686.311 378.907 693.541 380.841 699.307 384.2C707.45 388.944 713.504 396.762 715.868 405.907C718.097 414.53 716.402 423.6 711.817 431.172C706.088 440.631 697.681 444.919 687.286 447.549C678.754 448.132 670.897 446.829 663.671 442.039C656.155 437.057 651.161 428.977 649.428 420.18C647.689 411.352 649.545 401.944 654.571 394.469C660.521 385.62 669.464 381.595 679.621 379.625Z"/>
	<path fill="#6647FE" d="M679.237 384.106C685.613 383.566 692.188 385.174 697.362 389.012C703.258 393.386 706.966 400.538 707.873 407.766C708.808 415.225 706.468 423.296 701.786 429.191C696.924 435.313 690.728 438.029 683.122 438.844C677.236 439.145 671.533 438.054 666.463 434.942C660.505 431.286 656.519 425.224 654.849 418.495C653.036 411.187 654.246 403.456 658.288 397.093C663.261 389.266 670.502 385.942 679.237 384.106Z"/>
	<path fill="#A63ECF" d="M679.543 389.131C683.647 388.931 687.594 389.571 691.24 391.544C696.285 394.274 699.856 399.192 701.317 404.698C702.932 410.788 702.14 417.5 698.778 422.874C695.239 428.531 690.243 431.071 683.956 432.487C679.202 432.832 675.058 432.194 670.966 429.585C665.766 426.267 661.912 420.42 660.733 414.384C659.638 408.785 660.871 402.78 664.122 398.09C667.886 392.66 673.268 390.289 679.543 389.131Z"/>
	<path fill="#78158B" d="M742.228 320.126C750.099 319.262 757.578 321.025 764.323 325.173C772.323 330.092 778.308 338.109 780.415 347.298C782.418 356.028 780.726 365.477 775.962 373.048C770.56 381.631 762.77 385.183 753.258 387.382C744.902 388.802 735.979 387.178 728.888 382.486C720.883 377.19 715.41 368.611 713.6 359.216C711.902 350.397 713.523 341.297 718.611 333.841C724.323 325.469 732.567 321.905 742.228 320.126Z"/>
	<path fill="#6647FE" d="M743.723 324.129C749.927 323.418 756.98 325.89 761.832 329.643C767.82 334.273 771.609 341.286 772.508 348.772C773.395 356.163 771.336 363.965 766.607 369.755C761.713 375.746 754.752 378.558 747.25 379.278C740.803 378.887 735.055 377.738 729.576 374.081C723.433 369.979 719.092 363.235 717.863 355.951C716.699 349.052 718.406 341.675 722.567 336.031C727.819 328.909 735.248 325.546 743.723 324.129Z"/>
	<path fill="#A63ECF" d="M744.389 329.199C749.485 329.313 754.329 330.605 758.25 334.013C762.703 337.885 765.294 343.708 765.655 349.555C766.014 355.362 764.308 361.203 760.382 365.567C756.448 369.94 751.649 371.839 745.915 372.188C740.936 371.815 736.857 370.569 732.837 367.485C728.168 363.903 724.882 358.602 724.12 352.734C723.429 347.412 724.776 341.897 728.131 337.671C732.268 332.461 737.974 330.081 744.389 329.199Z"/>
	<path fill="#C17EFB" d="M839.228 337.973C859.087 361.276 867.956 395.171 865.629 425.279C863.08 458.272 847.549 489.931 822.247 511.463C798.187 531.938 765.881 543.309 734.245 540.699C716.867 539.265 685.016 530.131 672.042 517.759C684.712 503.119 699.352 489.767 713.094 476.12C712.709 469.827 714.766 462.847 718.076 457.515C722.794 449.916 730.58 444.651 739.29 442.753C748.059 440.841 757.416 442.66 764.901 447.595C774.459 453.896 778.481 463.837 780.758 474.622C786.402 473.655 804.329 452.337 808.969 447.14C804.825 446.744 800.796 445.863 796.946 444.262C787.899 440.502 780.834 433.234 777.155 424.168C773.847 416.015 773.882 407.349 777.347 399.25C781.83 388.77 790.386 383.708 800.57 379.686C806.362 373.717 811.793 367.331 817.453 361.23C824.681 353.439 832.109 345.873 839.228 337.973Z"/>
	<path fill="#78158B" d="M713.094 476.12C712.709 469.827 714.766 462.847 718.076 457.515C722.794 449.916 730.58 444.651 739.29 442.753C748.059 440.841 757.416 442.66 764.901 447.595C774.459 453.896 778.481 463.837 780.758 474.622C780.086 485.636 777.779 494.705 769.205 502.24C762.767 507.897 753.922 511.001 745.349 510.329C736.178 509.61 727.308 505.033 721.421 497.971C716.062 491.542 713.928 484.315 713.094 476.12Z"/>
	<path fill="#6647FE" d="M745.067 445.654C750.836 445.177 757.397 447.591 761.875 451.108C768.099 455.996 772.016 463.413 772.737 471.282C773.441 478.967 770.999 487.007 765.839 492.792C760.701 498.552 754.002 501.142 746.482 501.711C740.399 501.561 734.89 500.469 729.68 497.075C723.573 493.095 719.901 486.511 718.591 479.457C717.207 472.008 718.689 464.383 723.034 458.128C728.484 450.282 736.046 447.202 745.067 445.654Z"/>
	<path fill="#A63ECF" d="M742.343 451.636C746.434 451.356 749.872 451.833 753.593 453.679C758.966 456.346 762.917 461.283 764.742 466.958C766.539 472.545 766.302 478.781 763.588 484.039C760.236 490.533 755.007 493.094 748.38 495.182C744.066 495.157 740.274 494.693 736.361 492.659C730.797 489.768 726.51 484.384 724.799 478.363C723.317 473.15 723.93 467.323 726.577 462.583C730.016 456.425 735.787 453.406 742.343 451.636Z"/>
	<path fill="#78158B" d="M800.57 379.686C812.565 379.025 822.826 380.673 832.112 388.879C838.707 394.708 843.145 403.169 843.588 412.016C844.033 420.892 840.717 429.983 834.645 436.482C827.434 444.199 819.013 445.881 808.969 447.14C804.825 446.744 800.796 445.863 796.946 444.262C787.899 440.502 780.834 433.234 777.155 424.168C773.847 416.015 773.882 407.349 777.347 399.25C781.83 388.77 790.386 383.708 800.57 379.686Z"/>
	<path fill="#6647FE" d="M804.416 384.645C810.1 383.953 816.806 385.873 821.572 388.859C827.943 392.852 832.406 399.688 833.877 407.038C835.272 414.001 833.993 421.187 830.025 427.118C825.235 434.278 818.203 437.364 810.105 438.985C803.854 438.985 798.265 438.53 792.734 435.203C786.262 431.309 781.691 424.888 780.06 417.525C778.438 410.195 779.946 402.445 784.143 396.231C789.079 388.923 796.19 386.296 804.416 384.645Z"/>
	<path fill="#A63ECF" d="M804.924 389.663C809.24 389.104 814.128 390.632 817.727 392.973C822.882 396.325 826.617 402.043 827.784 408.066C828.827 413.452 827.628 418.891 824.558 423.421C820.869 428.865 815.416 431.721 809.117 432.977C804.437 433.09 799.949 432.049 795.977 429.511C790.73 426.16 786.862 420.797 785.733 414.64C784.713 409.073 785.96 402.934 789.281 398.326C793.168 392.932 798.56 390.632 804.924 389.663Z"/>
	<path fill="#C17EFB" d="M200.807 515.939C179.614 499.028 164.91 475.908 158.033 449.691C149.606 417.567 154.379 380.595 171.179 351.91C188.223 322.807 216.061 302.221 248.63 293.788C282.511 285.016 315.935 291.537 345.8 309.031C355.614 315.774 364.76 322.624 372.498 331.785C376.498 335.433 379.829 340.155 382.875 344.602C396.199 364.051 404.444 387.406 405.591 410.998C407.198 444.064 396.109 477.419 373.746 502.072C366.131 510.466 357.608 516.641 348.942 523.733C343.526 526.909 337.966 530.417 332.027 532.501C327.361 534.185 322.69 535.893 317.981 537.454C291.061 546.374 260.526 545.57 234.131 535.141C226.372 532.075 219.004 527.643 211.545 523.903C207.923 521.382 204.047 518.939 200.807 515.939Z"/>
	<path fill="#FCF5FE" d="M200.807 515.939C179.614 499.028 164.91 475.908 158.033 449.691C149.606 417.567 154.379 380.595 171.179 351.91C188.223 322.807 216.061 302.221 248.63 293.788C282.511 285.016 315.935 291.537 345.8 309.031C355.614 315.774 364.76 322.624 372.498 331.785C367.359 337.082 362.315 342.43 357.39 347.927C352.196 343.639 347.403 338.792 341.941 334.848C320.885 319.643 294.525 312.296 268.658 314.788C242.031 317.355 216.78 330.477 199.724 351.146C182.235 372.339 174.632 400.909 177.463 428.072C179.615 448.721 188.507 469.309 202.366 484.777C206.689 489.602 212.046 493.535 216.194 498.462C211.298 504.464 205.965 510.158 200.807 515.939Z"/>
	<path fill="#6647FE" d="M312.389 391.794C313.909 391.659 314.857 391.752 316.146 390.83C323.935 385.265 332.085 374.863 338.675 367.635C344.717 361.009 350.982 354.676 357.406 348.421C375.888 370.445 385.161 398.44 382.754 427.206C380.533 453.753 367.317 479.17 346.882 496.235C325.491 514.098 298.97 522.665 271.163 520.175C250.765 518.348 233.242 510.031 216.738 498.389C228.101 485.591 238.78 471.89 252.231 461.188C252.224 467.701 252.031 475.495 256.897 480.531C262.413 486.239 271.067 487.398 278.624 487.487C285.936 487.573 294.738 486.781 300.135 481.272C307.575 473.678 305.191 454.945 304.981 444.968C317.136 445.018 341.554 447.463 350.772 439.481C356.292 434.701 357.622 427.709 357.941 420.775C358.294 413.133 358.188 403.651 352.541 397.797C343.419 388.342 324.305 392.059 312.389 391.794Z"/>
	<path fill="#78158B" d="M252.916 391.51C252.576 385.555 252.448 379.6 252.395 373.636C252.339 367.367 251.967 357.929 256.846 353.277C262.789 347.612 273.96 348.119 281.669 348.194C288.781 348.263 296.871 349.071 301.985 354.634C308.307 361.51 305.679 382.423 305.521 391.8L312.389 391.794C324.305 392.059 343.419 388.342 352.541 397.797C358.188 403.651 358.294 413.133 357.941 420.775C357.622 427.709 356.292 434.701 350.772 439.481C341.554 447.463 317.136 445.018 304.981 444.968C305.191 454.945 307.575 473.678 300.135 481.272C294.738 486.781 285.936 487.573 278.624 487.487C271.067 487.398 262.413 486.239 256.897 480.531C252.031 475.495 252.224 467.701 252.231 461.188C252.375 455.961 252.38 450.731 252.406 445.503C240.309 445.844 223.607 447.859 214.158 438.632C208.022 432.64 207.575 424.207 207.461 416.159C207.368 409.607 207.907 402.357 212.873 397.489C221.847 388.689 241.253 391.36 252.916 391.51Z"/>
	<path fill="#A63ECF" d="M265.646 355.564C266.417 355.65 267.572 355.673 268.27 355.987C269.585 356.578 269.634 357.183 270.02 358.432C269.315 363.382 264.678 367.53 261.326 370.948C260.839 371.36 260.461 371.304 259.842 371.4C259.085 370.824 258.725 370.343 258.402 369.461C257.369 366.641 257.692 363.275 259.007 360.599C260.447 357.672 262.673 356.543 265.646 355.564Z"/>
	<path fill="#A63ECF" d="M221.261 399.914C222.61 400.122 223.618 400.444 224.863 400.961C225.373 401.655 225.775 401.92 225.788 402.828C225.847 407.157 219.172 412.951 216.348 416.006C215.896 416.419 215.579 416.485 215.007 416.668C214.302 416.151 214.085 416.103 213.695 415.267C212.552 412.815 213.097 409.448 214.017 407.012C215.474 403.151 217.638 401.593 221.261 399.914Z"/>
	<path fill="#D294F8" d="M352.511 303.677C356.43 303.396 360.652 302.992 364.511 303.89C418.402 304.81 472.407 304.167 526.314 304.321L607.223 304.47C621.977 304.484 636.823 304.83 651.565 304.363L651.232 304.764C643.939 313.368 635.262 320.564 628.144 329.458C605.442 357.824 595.109 395.031 597.819 431.065C599.593 454.653 606.974 476.981 618.701 497.433C620.297 500.215 628.613 511.493 628.972 513.699C612.371 510.142 596.758 510.647 582.122 520.058C568.81 528.617 559.226 542.168 555.94 557.688C553.131 570.95 555.038 583.357 560.835 595.528C547.229 596.743 533.231 596.26 519.577 596.264C500.833 596.27 482.061 596.469 463.323 595.972C470.084 581.244 471.05 566.071 465.32 550.752C459.618 535.508 448.221 522.949 433.365 516.218C418.953 509.687 402.954 509.454 388.212 515.116C385.123 516.302 382.033 517.751 379.168 519.409C375.436 522.592 371.375 525.462 367.946 528.981C359.076 538.081 354.369 551.491 353.391 563.963C352.469 575.723 355.662 586.254 360.212 596.953L349.187 597.028C347.562 586.943 348.611 576.862 348.747 566.708L348.942 523.733C357.608 516.641 366.131 510.466 373.746 502.072C396.109 477.419 407.198 444.064 405.591 410.998C404.444 387.406 396.199 364.051 382.875 344.602C379.829 340.155 376.498 335.433 372.498 331.785C364.76 322.624 355.614 315.774 345.8 309.031C347.971 307.087 350.061 305.269 352.511 303.677Z"/>
	<path fill="#C17EFB" d="M537.118 484.082C536.714 482.794 536.617 481.32 536.62 479.975C536.625 478.264 537.077 476.691 538.364 475.484C543.616 470.555 564.874 473.27 572.243 473.54C570.921 476.69 569.519 481.542 566.068 482.985C559.784 485.613 544.718 483.589 537.118 484.082Z"/>
	<path fill="#C17EFB" d="M444.662 484.572C444.549 483.641 444.474 482.749 444.488 481.809C444.524 479.215 444.821 475.667 447.084 473.938C451.261 470.747 473.695 472.407 479.394 472.92C477.664 477.155 475.675 480.585 472.834 484.166C465.393 483.905 451.188 481.909 444.662 484.572Z"/>
	<path fill="#C17EFB" d="M490.3 526.382C490.649 524.003 490.631 520.456 492.653 518.831C497.66 514.808 521.759 516.538 528.395 517.673C526.279 521.706 524.009 525.19 520.822 528.467C513.078 528.914 505.351 529.488 497.645 528.241C495.118 527.832 492.76 526.826 490.3 526.382Z"/>
	<path fill="#78158B" d="M572.243 473.54L573.964 475.186C576.452 477.295 578.123 479.13 578.451 482.489C578.678 484.816 578.529 487.048 576.957 488.901C574.183 492.172 569.076 492.794 565.049 492.98C558.098 493.301 550.725 493.2 543.817 492.413C540.831 490.273 538.485 488.281 537.132 484.795L537.118 484.082C544.718 483.589 559.784 485.613 566.068 482.985C569.519 481.542 570.921 476.69 572.243 473.54Z"/>
	<path fill="#6647FE" d="M572.243 473.54L573.964 475.186C573.983 478.641 574.113 482.855 571.498 485.5C568.367 488.665 553.577 487.662 548.941 487.468C544.859 487.297 540.483 487.352 537.132 484.795L537.118 484.082C544.718 483.589 559.784 485.613 566.068 482.985C569.519 481.542 570.921 476.69 572.243 473.54Z"/>
	<path fill="#78158B" d="M479.394 472.92C480.691 474.079 482.054 475.206 483.186 476.528C485.598 478.146 488.235 479.611 488.85 482.701C489.375 485.338 488.707 487.711 487.082 489.829C485.388 492.039 483.4 492.412 480.76 492.671C474.096 493.325 452.183 494.567 447.799 490.8C446.082 489.324 445.302 487.06 444.757 484.933L444.662 484.572C451.188 481.909 465.393 483.905 472.834 484.166C475.675 480.585 477.664 477.155 479.394 472.92Z"/>
	<path fill="#6647FE" d="M479.394 472.92C480.691 474.079 482.054 475.206 483.186 476.528C483.55 479.669 484.379 482.905 482.559 485.716C477.955 488.976 456.243 487.43 450.099 486.4C448.288 486.097 446.458 485.635 444.757 484.933L444.662 484.572C451.188 481.909 465.393 483.905 472.834 484.166C475.675 480.585 477.664 477.155 479.394 472.92Z"/>
	<path fill="#78158B" d="M528.395 517.673L532.437 521.512C534.861 523.516 537.882 525.682 538.071 529.126C538.174 531.016 537.269 532.952 535.984 534.299C531.047 539.475 516.623 537.859 509.774 537.767C505.793 537.713 501.813 537.596 497.833 537.476C495.768 535.501 493.628 533.609 491.954 531.281C490.896 529.825 490.679 528.103 490.3 526.382C492.76 526.826 495.118 527.832 497.645 528.241C505.351 529.488 513.078 528.914 520.822 528.467C524.009 525.19 526.279 521.706 528.395 517.673Z"/>
	<path fill="#6647FE" d="M528.395 517.673L532.437 521.512C532.546 524.484 532.925 527.56 530.629 529.868C526.239 534.284 507.979 532.446 501.821 532.156C498.519 532 495.222 531.8 491.954 531.281C490.896 529.825 490.679 528.103 490.3 526.382C492.76 526.826 495.118 527.832 497.645 528.241C505.351 529.488 513.078 528.914 520.822 528.467C524.009 525.19 526.279 521.706 528.395 517.673Z"/>
	<path fill="#FCF5FE" d="M415.621 321.745L507.292 322.008L535.962 322.01C541.184 322.009 546.57 321.738 551.772 322.145C554.12 322.328 556.581 322.873 558.481 324.345C560.246 325.711 561.349 327.719 561.532 329.945C561.708 332.072 560.966 334.235 559.464 335.761C556.328 338.947 549.895 338.221 545.709 338.284L408.464 338.515C404.674 333.292 401.535 327.694 398.457 322.036L415.621 321.745Z"/>
	<path fill="#A63ECF" d="M352.511 303.677C356.43 303.396 360.652 302.992 364.511 303.89C392.991 324.91 416.75 359.461 422.016 394.794C427.594 432.22 415.897 471.677 393.31 501.711C390.67 505.221 379.73 516.161 379.168 519.409C375.436 522.592 371.375 525.462 367.946 528.981C359.076 538.081 354.369 551.491 353.391 563.963C352.469 575.723 355.662 586.254 360.212 596.953L349.187 597.028C347.562 586.943 348.611 576.862 348.747 566.708L348.942 523.733C357.608 516.641 366.131 510.466 373.746 502.072C396.109 477.419 407.198 444.064 405.591 410.998C404.444 387.406 396.199 364.051 382.875 344.602C379.829 340.155 376.498 335.433 372.498 331.785C364.76 322.624 355.614 315.774 345.8 309.031C347.971 307.087 350.061 305.269 352.511 303.677Z"/>
	<path fill="#78158B" d="M446.201 404.176C463 404.412 479.848 404.072 496.651 404.033L576.004 404.243L576.009 451.994L446.265 451.999L446.201 404.176Z"/>
</svg>
