<?xml version="1.0" encoding="utf-8" ?>
<svg xmlns="http://www.w3.org/2000/svg" xmlns:xlink="http://www.w3.org/1999/xlink" width="1024" height="1024">
	<path fill="#5A5A8F" d="M252.732 791.737C256.267 818.537 264.394 847.534 286.889 864.67C299.235 874.075 314.284 876.887 329.483 874.764C361.173 870.335 388.426 851.907 413.21 832.916C479.798 849.316 544.42 849.979 610.749 831.929C633.674 856.182 663.235 883.551 698.558 884.367C714.832 884.742 730.725 879.185 742.505 867.783C757.503 853.266 767.007 831.515 770.083 811.068C770.618 807.517 771.165 797.593 772.567 795.091C778.355 796.93 784.281 798.328 790.087 800.117C799.535 803.028 808.933 806.597 818.011 810.514C831.533 816.349 851.002 824.844 856.53 839.621C858.464 844.791 858.224 850.22 855.786 855.176C847.385 872.248 818.951 883.195 801.684 889.102C759.879 903.404 716.167 910.604 672.461 916.108C549.941 931.537 407.367 930.782 286.495 905.329C256.796 899.075 226.362 891.981 199.01 878.478C187.698 872.893 173.304 864.416 169.273 851.538C167.484 845.821 168.414 840.021 171.246 834.813C183.594 812.099 228.959 799.083 252.732 791.737Z"/>
	<path fill="#240142" d="M258.34 97.6538C272.023 98.5158 284.927 104.264 297.405 109.545C343.158 128.912 384.671 155.828 421.012 189.784C438.718 185.716 456.339 182.067 474.411 179.967C535.478 172.869 598.418 181.535 654.376 207.411C706.267 182.023 762.187 163.343 820.122 159.566C830.871 158.865 843.128 157.382 853.514 160.906C859.038 162.779 863.376 166.555 865.886 171.842C870.588 181.749 868.585 196.032 867.913 206.709C864.708 257.644 854.554 306.215 836.4 353.965C833.194 362.399 829.58 370.611 825.676 378.744C830.078 389.714 834.863 400.574 838.839 411.704C852.905 451.073 858.406 488.066 855.177 529.725C877.599 550.839 921.802 592.647 922.663 624.832C922.895 633.508 919.47 641.62 913.463 647.818C896.138 665.692 860.153 669.727 836.106 669.91C828.26 669.969 820.16 669.777 812.333 669.242C801.342 691.083 787.275 710.761 770.229 728.26C772.611 744.677 773.766 760.28 773.577 776.87C773.508 782.868 773.5 789.158 772.567 795.091C771.165 797.593 770.618 807.517 770.083 811.068C767.007 831.515 757.503 853.266 742.505 867.783C730.725 879.185 714.832 884.742 698.558 884.367C663.235 883.551 633.674 856.182 610.749 831.929C544.42 849.979 479.798 849.316 413.21 832.916C388.426 851.907 361.173 870.335 329.483 874.764C314.284 876.887 299.235 874.075 286.889 864.67C264.394 847.534 256.267 818.537 252.732 791.737C249.486 772.215 250.684 749.101 254.785 729.767C219.651 684.666 195.037 642.021 183.195 585.493C151.494 570.733 115.593 543.254 103.246 509.597C100.032 500.836 99.3157 492.14 103.386 483.483C114.77 459.266 153.949 435.43 178.841 426.737C182.061 425.613 185.352 424.658 188.63 423.716C197.294 393.033 208.256 366.093 225.362 339.024C221.573 328.465 219.875 317.085 218.313 306.01C210.035 247.323 217.389 170.954 242.766 116.834C246.291 109.316 250.432 101.251 258.34 97.6538Z"/>
	<path fill="#D346BB" d="M267.765 743.022L272.012 747.812C271.935 755.288 271.933 763.148 270.679 770.52C269.449 768.622 268.353 765.947 266.486 764.677L265.571 764.979C265.472 757.633 266.581 750.254 267.765 743.022Z"/>
	<path fill="#FEFEFD" d="M265.571 764.979L266.486 764.677C268.353 765.947 269.449 768.622 270.679 770.52L271.238 772.998C272.57 795.145 274.891 816.832 285.314 836.895C288.468 842.965 294.627 848.141 296.898 854.389C295.215 853.292 293.766 852.007 292.356 850.582C270.992 828.994 265.286 794.329 265.571 764.979Z"/>
	<defs>
		<linearGradient id="gradient_0" gradientUnits="userSpaceOnUse" x1="255.29417" y1="186.24277" x2="236.08762" y2="179.21397">
			<stop offset="0" stop-color="#F0E9FB"/>
			<stop offset="1" stop-color="white"/>
		</linearGradient>
	</defs>
	<path fill="url(#gradient_0)" d="M231.893 228.906C234.391 201.733 238.742 176.127 246.845 150.038C248.879 143.489 250.756 137.072 253.34 130.706L254.011 130.731L255.879 133.9C246.646 168.945 240.877 200.412 238.904 236.686L237.596 234.499C235.942 231.704 235.015 230.06 231.893 228.906Z"/>
	<path fill="#571284" d="M363.582 813.248C375.128 818.207 386.624 823.192 398.448 827.461C392.922 832.355 386.714 837.182 380.002 840.329C375.213 837.583 369.273 836.135 364.081 834.247C358.387 832.177 352.791 829.788 347.186 827.491C352.283 822.249 357.883 817.81 363.582 813.248Z"/>
	<path fill="#DD85DE" d="M231.893 228.906C235.015 230.06 235.942 231.704 237.596 234.499L238.904 236.686C238.827 257.815 237.452 292.046 244.43 311.757C241.714 314.834 239.308 318.206 236.833 321.478C229.517 295.809 228.587 255.247 231.893 228.906Z"/>
	<path fill="#FEFEFD" d="M118.614 484.982C132.065 463.984 163.169 447.624 185.978 438.826L181.981 457.344C173.12 461.085 123.222 485.397 118.614 484.982Z"/>
	<path fill="#8B2FAB" d="M680.48 802.159C685.331 807.931 690.981 813.958 694.74 820.493C683.787 826.373 671.55 831.494 659.789 835.489C654.169 837.397 647.224 838.34 642.055 841.141C636.356 836.933 631.517 831.421 626.602 826.351C633.117 823.466 639.981 821.202 646.572 818.445C658.194 813.584 669.366 808.081 680.48 802.159Z"/>
	<path fill="#DD85DE" d="M850.123 194.215L851.972 192.917L852.747 193.077C854.599 198.97 852.501 209.953 851.889 216.339C848.28 253.958 841.243 290.065 829.861 326.136C826.289 337.455 822.523 349.479 817.017 360.043L816.586 360.858C814.108 357.033 811.578 353.236 809.326 349.273C829.233 305.923 846.416 241.908 850.123 194.215Z"/>
	<path fill="#FEFEFD" d="M661.764 221.706C671.466 215.848 682.114 211.534 692.532 207.136C738.421 187.763 789.343 174.004 839.511 175.496C844.273 175.638 849.588 176.137 853.014 179.783C852.852 179.801 852.691 179.822 852.529 179.836C847.407 180.302 842.147 179.103 836.998 178.995C829.542 178.838 821.804 179.841 814.393 180.686C772.052 185.517 729.506 200.067 690.835 217.561C684.862 220.263 677.616 222.692 672.128 226.164C668.741 224.503 665.263 223.11 661.764 221.706Z"/>
	<path fill="#FEFEFD" d="M262.674 113.184C319.705 131.476 359.713 156.181 404.641 195.709L397.95 197.981C367.387 171.363 296.983 129.54 257.125 122.727C258.577 119.382 260.926 116.389 262.674 113.184Z"/>
	<path fill="#DD85DE" d="M694.74 820.493L695.037 820.541C701.851 828.522 706.945 847.126 706.119 857.634C705.838 861.207 704.921 864.706 702.177 867.199C699.934 869.238 697.814 869.171 694.934 869.102C674.364 865.881 657.495 854.515 642.055 841.141C647.224 838.34 654.169 837.397 659.789 835.489C671.55 831.494 683.787 826.373 694.74 820.493Z"/>
	<path fill="#D346BB" d="M118.614 484.982C123.222 485.397 173.12 461.085 181.981 457.344C179.194 475.908 177.147 494.249 176.533 513.027C160.262 513.334 141.318 505.515 127.195 497.71C123.389 495.606 119.938 492.771 116.083 490.79L115.35 490.42C116.269 488.438 117.337 486.752 118.614 484.982Z"/>
	<path fill="#571284" d="M680.48 802.159C694.193 793.333 707.838 784.529 720.808 774.616C734.252 764.34 746.63 752.826 758.983 741.292C760.564 752.199 760.88 764.408 759.691 775.358L759.188 773.844C756.978 773.73 754.425 776.609 752.873 778.01C733.853 795.18 717.258 807.648 695.037 820.541L694.74 820.493C690.981 813.958 685.331 807.931 680.48 802.159Z"/>
	<path fill="#FEFEFD" d="M749.62 525.703C756.028 517.286 767.464 512.08 777.767 510.672C798.051 507.9 816.368 518.094 831.876 530.064C855.762 548.501 892.453 583.524 904.765 611.497C902.784 611.093 887.111 593.718 883.838 590.599C873.365 580.617 862.129 571.352 850.566 562.666C830.204 547.37 797.282 524.354 771.363 523.009C764.075 522.631 757.686 524.61 750.594 525.575L749.62 525.703Z"/>
	<path fill="#8B2FAB" d="M115.35 490.42L116.083 490.79C119.938 492.771 123.389 495.606 127.195 497.71C141.318 505.515 160.262 513.334 176.533 513.027C176.466 531.596 178.437 549.657 180.756 568.037C158.563 555.283 137.132 538.487 122.909 516.95C117.362 508.552 113.233 500.709 115.35 490.42Z"/>
	<path fill="#8B2FAB" d="M695.037 820.541C717.258 807.648 733.853 795.18 752.873 778.01C754.425 776.609 756.978 773.73 759.188 773.844L759.691 775.358C758.145 803.501 752.489 838.434 730.613 858.184C721.579 866.341 709.69 870.16 697.616 869.469C696.691 869.416 695.834 869.335 694.934 869.102C697.814 869.171 699.934 869.238 702.177 867.199C704.921 864.706 705.838 861.207 706.119 857.634C706.945 847.126 701.851 828.522 695.037 820.541Z"/>
	<path fill="#8B2FAB" d="M272.012 747.812C299.233 773.788 329.457 797.042 363.582 813.248C357.883 817.81 352.283 822.249 347.186 827.491C352.791 829.788 358.387 832.177 364.081 834.247C369.273 836.135 375.213 837.583 380.002 840.329C360.317 851.055 331.309 867.522 308.417 860.788C305.269 859.862 302.397 858.44 299.637 856.668L296.898 854.389C294.627 848.141 288.468 842.965 285.314 836.895C274.891 816.832 272.57 795.145 271.238 772.998L270.679 770.52C271.933 763.148 271.935 755.288 272.012 747.812Z"/>
	<path fill="#DD85DE" d="M271.238 772.998C285.839 786.298 299.426 800.139 316.284 810.695C321.982 814.263 327.824 817.652 333.793 820.747C338.103 822.981 342.748 824.906 346.805 827.567C333.377 840.211 316.921 850.244 299.637 856.668L296.898 854.389C294.627 848.141 288.468 842.965 285.314 836.895C274.891 816.832 272.57 795.145 271.238 772.998Z"/>
	<path fill="#DD85DE" d="M257.125 122.727C296.983 129.54 367.387 171.363 397.95 197.981C391.255 199.721 384.201 203.054 377.902 205.942C358.831 214.687 341.069 224.679 323.804 236.587L276.272 154.032C270.086 143.481 263.187 133.373 257.125 122.727Z"/>
	<path fill="#8B2FAB" d="M732.342 567.219C769.675 598.638 818.122 618.083 866.122 625.156C878.83 627.029 892.924 628.42 905.758 627.293C906.685 627.211 907.435 627.074 908.317 626.804C908.861 625.071 908.65 623.235 908.579 621.442C908.954 622.949 909.139 624.425 908.966 625.981C908.428 630.82 905.271 634.949 901.627 637.957C880.476 655.417 827.952 655.622 801.768 652.922C780.502 650.73 762.776 645.227 748.918 628.052C735.211 611.065 730.119 588.69 732.342 567.219Z"/>
	<path fill="#8B2FAB" d="M752.559 282.472C761.91 273.914 769.64 263.659 778.454 254.569C800.482 231.848 823.689 211.638 850.123 194.215C846.416 241.908 829.233 305.923 809.326 349.273C804.743 343.99 801.305 337.342 797.107 331.696C783.718 313.689 769.763 296.971 752.559 282.472Z"/>
	<path fill="#8B2FAB" d="M255.879 133.9C261.708 144.907 268.457 155.459 274.681 166.247L317.785 241.061C290.091 261.262 265.8 284.942 244.43 311.757C237.452 292.046 238.827 257.815 238.904 236.686C240.877 200.412 246.646 168.945 255.879 133.9Z"/>
	<path fill="#DD85DE" d="M672.128 226.164C677.616 222.692 684.862 220.263 690.835 217.561C729.506 200.067 772.052 185.517 814.393 180.686C821.804 179.841 829.542 178.838 836.998 178.995C842.147 179.103 847.407 180.302 852.529 179.836C852.691 179.822 852.852 179.801 853.014 179.783C853.055 181.374 853.231 182.753 852.12 184.035C846.379 190.652 831.269 198.825 823.521 204.672C798.14 223.822 765.949 252.523 747.988 278.743C733.078 265.419 716.929 253.142 699.948 242.551C690.792 236.841 681.036 232.314 672.128 226.164Z"/>
	<path fill="#FEFEFD" d="M207.793 612.945C205.803 607.301 204.023 601.582 202.44 595.81C183.257 525.873 190.165 450.868 219.031 384.58C224.665 371.641 231.385 359.196 238.394 346.957C243.909 337.325 250.607 328.239 257.396 319.474C299.004 265.759 360.659 222.612 426.474 204.746C512.394 181.423 605.027 194.687 682.095 238.844C681.865 238.863 681.636 238.893 681.406 238.901C678.164 239.016 667.149 232.362 663.549 230.755C648.053 223.84 632.307 218.158 615.999 213.47C596.54 207.876 576.472 203.959 556.283 202.364C465.116 195.164 369.486 230.997 303.093 293.328C270.369 324.05 244.07 361.082 226.447 402.402C224.023 408.084 221.754 413.901 219.703 419.728C217.263 426.656 210.663 450.811 206.759 455.028C202.863 464.12 202.972 475.773 202.256 485.543C198.789 532.894 202.881 579.268 220.703 623.64C223.631 630.928 227.488 637.973 230.05 645.374C220.542 635.285 215.974 621.397 207.793 612.945Z"/>
	<path fill="#DD85DE" d="M749.62 525.703L750.594 525.575C757.686 524.61 764.075 522.631 771.363 523.009C797.282 524.354 830.204 547.37 850.566 562.666C862.129 571.352 873.365 580.617 883.838 590.599C887.111 593.718 902.784 611.093 904.765 611.497C906.398 614.692 907.987 617.864 908.579 621.442C908.65 623.235 908.861 625.071 908.317 626.804C907.435 627.074 906.685 627.211 905.758 627.293C892.924 628.42 878.83 627.029 866.122 625.156C818.122 618.083 769.675 598.638 732.342 567.219C733.848 552.834 738.997 536.05 749.62 525.703Z"/>
	<path fill="#8B2FAB" d="M697.156 248.582C707.812 253.959 717.538 263.099 726.425 270.986C771.512 311.003 807.459 363.72 826.389 421.093C837.357 454.334 841.226 487.903 840.983 522.824C838.532 521.236 836.016 519.71 833.811 517.784C829.583 516.546 825.068 513.327 821.043 511.36C813.157 507.506 804.075 505.312 795.492 503.709C780.642 501.769 764.878 505.468 752.926 514.562C736.774 526.85 727.364 547.834 724.892 567.6C721.935 591.247 726.974 613.919 740.72 633.438C752.613 647.138 765.903 656.267 782.893 662.634C787.243 664.354 791.813 665.412 796.353 666.492C791.459 676.098 785.018 685.387 778.617 694.045C727.995 762.505 645.315 813.497 560.947 826.147C476.863 838.753 388.859 819.94 320.132 769.13C276.978 737.226 243.851 695.871 220.763 647.533C215.733 637.001 209.517 624.527 207.793 612.945C215.974 621.397 220.542 635.285 230.05 645.374C227.488 637.973 223.631 630.928 220.703 623.64C202.881 579.268 198.789 532.894 202.256 485.543C202.972 475.773 202.863 464.12 206.759 455.028C210.426 466.648 212.539 478.572 216.866 490.036C219.794 497.793 225.598 505.101 227.667 513.045C261.442 569.781 319.242 599.381 381.473 615.149C473.543 638.476 594.882 626.107 677.118 577.001C682.262 573.93 687.346 570.753 692.456 567.623C694.295 564.064 705.605 557.281 709.287 553.809C732.838 531.604 749.401 500.747 757.585 469.611C773.177 410.285 762.399 342.972 729.523 291.222C724.006 282.537 717.832 274.296 711.268 266.376C706.66 260.815 701.003 255.309 697.402 249.024C697.319 248.878 697.238 248.73 697.156 248.582Z"/>
	<path fill="#571284" d="M753.243 305.576C759.465 310.903 766.818 323.872 771.772 331.246C805.109 380.868 827.782 433.628 832.368 493.757C832.976 501.729 832.879 509.861 833.811 517.784C829.583 516.546 825.068 513.327 821.043 511.36C813.157 507.506 804.075 505.312 795.492 503.709C797.631 449.151 793.172 394.268 772.149 343.29C769.207 336.156 765.783 329.222 762.095 322.445C759.058 316.865 755.719 311.438 753.243 305.576Z"/>
	<path fill="#240142" d="M227.667 513.045C261.442 569.781 319.242 599.381 381.473 615.149C473.543 638.476 594.882 626.107 677.118 577.001C682.262 573.93 687.346 570.753 692.456 567.623C690.288 575.823 679.791 595.14 675.421 604.227C660.584 635.081 646.116 665.952 629.689 696.008C618.093 690.535 606.112 685.802 594.254 680.926L543.244 659.956C523.004 680.343 502.249 700.245 481.399 720.006C474.265 712.194 466.224 705.237 458.67 697.831L418.082 657.469C395.979 670.182 373.323 681.823 350.968 694.075C329.47 661.394 290.542 617.715 283.952 579.121C278.131 574.722 272.278 570.388 266.838 565.514C257.9 557.506 228.282 524.81 227.667 513.045Z"/>
	<path fill="#571284" d="M680.473 579.029L680.618 579.163C680.699 579.435 680.839 579.697 680.859 579.98C681.07 583.013 633.204 676.989 627.54 688.221L574.617 666.452C563.603 661.967 552.465 657.773 541.508 653.153C522.336 673.659 500.826 691.84 481.427 712.138C473.801 704.948 466.629 697.409 459.196 690.037L419.621 651.013C408.592 655.435 398.414 661.719 388.007 667.398C376.205 673.839 364.343 679.903 352.824 686.879C350.929 683.642 348.708 680.531 346.643 677.396C326.409 649.218 301.432 616.081 289.239 583.556C298.056 587.724 306.082 593.395 314.797 597.794C338.765 609.893 364.647 618.678 390.891 624.255C455.581 638.002 522.396 636.389 586.362 619.72C608.292 614.006 630.376 606.441 650.724 596.392C661.063 591.286 670.808 585.298 680.473 579.029Z"/>
	<path fill="#571284" d="M740.72 633.438C752.613 647.138 765.903 656.267 782.893 662.634C780.36 664.87 776.342 672.245 774.02 675.443C768.239 683.404 762.111 691.273 755.585 698.639C718.008 741.06 671.341 773.924 617.877 793.085C559.188 814.12 486.876 817.26 426.111 803.606C404.239 798.691 383.276 791.412 363.029 781.83C316.424 759.775 277.022 723.686 249.019 680.627C241.935 669.735 235.27 659.034 230.857 646.725C239.569 654.225 247.206 662.764 255.501 670.691C265.315 680.07 276.683 688.904 287.668 696.854C360.038 749.227 445.07 768.51 533.191 754.341C606.322 742.582 670.949 710.728 721.149 655.75C727.715 648.559 735.048 641.301 740.72 633.438Z"/>
	<path fill="#DD85DE" d="M206.759 455.028C210.663 450.811 217.263 426.656 219.703 419.728C221.754 413.901 224.023 408.084 226.447 402.402C244.07 361.082 270.369 324.05 303.093 293.328C369.486 230.997 465.116 195.164 556.283 202.364C576.472 203.959 596.54 207.876 615.999 213.47C632.307 218.158 648.053 223.84 663.549 230.755C667.149 232.362 678.164 239.016 681.406 238.901C681.636 238.893 681.865 238.863 682.095 238.844C687.325 241.445 692.704 244.797 697.156 248.582C697.238 248.73 697.319 248.878 697.402 249.024C701.003 255.309 706.66 260.815 711.268 266.376C717.832 274.296 724.006 282.537 729.523 291.222C762.399 342.972 773.177 410.285 757.585 469.611C749.401 500.747 732.838 531.604 709.287 553.809C705.605 557.281 694.295 564.064 692.456 567.623C687.346 570.753 682.262 573.93 677.118 577.001C594.882 626.107 473.543 638.476 381.473 615.149C319.242 599.381 261.442 569.781 227.667 513.045C225.598 505.101 219.794 497.793 216.866 490.036C212.539 478.572 210.426 466.648 206.759 455.028Z"/>
	<path fill="#D346BB" d="M263.136 494.698C278.327 493.107 298.323 496.437 311.478 504.455C313.593 505.744 316.094 507.5 316.459 510.168C316.722 512.08 315.739 513.855 314.557 515.271C308.668 522.327 298.425 523.854 289.841 524.805C274.869 526.496 256.853 524.235 244.093 515.647C241.254 513.736 237.732 510.759 237.226 507.136C237.005 505.552 237.522 504.093 238.514 502.873C243.507 496.738 255.893 495.501 263.136 494.698Z"/>
	<path fill="#D346BB" d="M629.032 521.7C644.456 519.869 663.587 522.294 676.632 531.268C680.251 533.757 684.564 537.733 685.204 542.292C685.485 544.287 684.854 546.143 683.624 547.71C677.698 555.258 664.93 556.329 656.118 557.422C640.128 558.086 622.309 555.961 608.521 547.184C604.81 544.821 600.426 541.109 599.588 536.55C599.255 534.745 599.82 532.902 600.966 531.49C606.923 524.149 620.396 522.652 629.032 521.7Z"/>
	<path fill="#FEFEFD" d="M475.794 212.684C482.92 211.945 491.11 212.385 497.388 216.21C500.09 217.856 502.366 220.33 503.054 223.494C503.825 227.041 502.418 230.447 500.384 233.299C487.78 250.97 447.361 265.432 426.363 269.278C419.981 270.41 411.101 271.079 405.049 268.328C400.568 266.291 398.787 263.313 397.228 258.879C398.164 253.443 399.646 249.016 403.004 244.594C417.273 225.799 453.212 215.695 475.794 212.684Z"/>
	<path fill="#240142" d="M440.977 484.794C450.139 483.712 459.873 484.301 468.988 485.546C479.136 486.931 505.71 491.834 511.271 499.765C513.506 502.952 512.596 508.045 511.988 511.651C507.052 540.891 494.472 575.56 469.743 593.256C466.386 595.54 462.53 597.057 458.506 597.626C450.368 598.777 442.665 595.782 436.298 590.885C417.275 576.253 408.998 547.727 405.923 524.889C404.946 517.627 402.042 499.849 406.642 494.297C412.757 486.916 431.806 485.681 440.977 484.794Z"/>
	<path fill="#F9843F" d="M417.609 546.532C423.599 544.225 429.385 541.319 435.604 539.666C452.987 535.044 477.264 537.25 493.829 544.358C494.562 544.673 495.28 545.019 495.935 545.477C489.006 560.975 478.736 584.289 461.494 590.595C456.267 592.506 451.104 592.243 446.093 589.84C429.679 581.968 423.522 563.512 417.297 547.889L417.609 546.532Z"/>
	<path fill="#8D0E14" d="M410.325 497.773C412.469 496.998 414.62 496.245 416.797 495.562C445.844 486.453 480.534 488.99 507.534 503.091C505.367 512.337 503.492 521.586 501.145 530.804C499.678 535.747 498.258 540.857 495.935 545.477C495.28 545.019 494.562 544.673 493.829 544.358C477.264 537.25 452.987 535.044 435.604 539.666C429.385 541.319 423.599 544.225 417.609 546.532L417.297 547.889C413.478 530.996 411.091 515.098 410.325 497.773Z"/>
	<path fill="#EE4B34" d="M417.609 546.532C417.937 545.168 418.372 543.902 418.971 542.63C423.672 532.651 432.369 525.441 442.744 521.852C461.942 515.211 483.739 522.368 501.145 530.804C499.678 535.747 498.258 540.857 495.935 545.477C495.28 545.019 494.562 544.673 493.829 544.358C477.264 537.25 452.987 535.044 435.604 539.666C429.385 541.319 423.599 544.225 417.609 546.532Z"/>
	<path fill="#240142" d="M344.623 321.701C345.393 321.628 346.16 321.569 346.932 321.53C360.44 320.846 374.585 327.779 384.397 336.66C403.023 353.517 411.772 379.301 412.879 403.905C414.031 429.506 406.207 457.745 388.533 476.831C374.478 492.01 355.431 499.894 334.875 500.646C321.028 500.426 308.004 496.176 297.137 487.466C279.211 473.1 269.368 451.132 266.917 428.628C263.951 401.391 272.005 372.977 289.341 351.695C303.596 334.193 322.18 324.005 344.623 321.701Z"/>
	<path fill="#0A358D" d="M398.638 371.361C404.487 376.429 406.002 394.839 406.541 402.467C407.558 416.86 405.972 432.075 400.465 445.505C397.592 444.198 394.566 443.476 391.516 442.723C392.669 439.887 394.181 437.215 395.282 434.334C399.157 424.196 399.732 413.306 397.361 402.735C397.089 397.774 395.248 393.087 392.784 388.837C396.272 383.143 397.686 377.94 398.638 371.361Z"/>
	<path fill="#FEFEFD" d="M342.823 329.192C346.828 328.797 350.893 329.062 354.91 329.193C352.611 329.64 350.283 330.047 348.016 330.64C327.065 336.122 311.857 349.261 301.041 367.782C287.617 390.769 283.786 418.818 290.609 444.543C295.689 463.696 307.241 481.985 325.143 491.397C329.603 493.741 335.051 494.037 339.32 496.503C338.421 497.207 337.01 496.9 335.875 496.894C323.531 495.769 311.664 491.363 301.825 483.805C284.731 470.673 275.113 451.045 272.43 429.902C269.285 405.117 276.403 378.56 291.854 358.874C304.565 342.678 322.256 331.6 342.823 329.192Z"/>
	<defs>
		<linearGradient id="gradient_1" gradientUnits="userSpaceOnUse" x1="331.59573" y1="337.065" x2="333.92191" y2="421.07297">
			<stop offset="0" stop-color="#0A1E73"/>
			<stop offset="1" stop-color="#0B54B2"/>
		</linearGradient>
	</defs>
	<path fill="url(#gradient_1)" d="M292.593 419.219C292.981 410.981 293.772 402.959 295.859 394.958C301.272 374.212 313.734 353.594 332.616 342.608C341.774 337.28 350.192 335.727 360.652 335.911C363.443 335.961 366.302 335.903 369.007 336.68C371.622 337.43 372.629 338.678 373.887 341.007C367.469 340.968 361.797 342.437 357.186 347.175C353.026 351.448 350.781 356.733 349.278 362.407C342.395 364.791 338.629 370.188 334.913 376.043C326.003 390.224 323.685 405.329 325.486 421.844C321.752 421.307 318.521 423.016 314.819 422.78C307.8 422.332 299.336 417.744 292.593 419.219Z"/>
	<path fill="#0EA2E1" d="M292.593 419.219C299.336 417.744 307.8 422.332 314.819 422.78C318.521 423.016 321.752 421.307 325.486 421.844C326.525 427.012 328.43 431.849 330.397 436.723C334.156 446.072 340.55 453.996 350.021 457.982C357.757 461.237 366.359 461.398 374.104 458.093C381.566 454.909 387.049 449.357 391.516 442.723C394.566 443.476 397.592 444.198 400.465 445.505L398.182 450.352C390.093 467.348 378.855 483.317 360.24 489.764C350.006 493.307 339.195 491.744 329.617 487.045C312.419 478.607 302.601 462.136 296.654 444.596C292.997 437.087 292.99 427.428 292.593 419.219Z"/>
	<path fill="#095FB8" d="M292.593 419.219C299.336 417.744 307.8 422.332 314.819 422.78C318.521 423.016 321.752 421.307 325.486 421.844C326.525 427.012 328.43 431.849 330.397 436.723C324.875 434.785 320.949 436.81 315.432 436.632C308.584 436.41 301.448 434.654 294.956 432.541C295.629 436.336 297.047 440.781 296.654 444.596C292.997 437.087 292.99 427.428 292.593 419.219Z"/>
	<path fill="#240142" d="M373.887 341.007C382.174 343.119 388.553 346.32 393.141 353.908C396.361 359.234 397.764 365.261 398.638 371.361C397.686 377.94 396.272 383.143 392.784 388.837C395.248 393.087 397.089 397.774 397.361 402.735C399.732 413.306 399.157 424.196 395.282 434.334C394.181 437.215 392.669 439.887 391.516 442.723C387.049 449.357 381.566 454.909 374.104 458.093C366.359 461.398 357.757 461.237 350.021 457.982C340.55 453.996 334.156 446.072 330.397 436.723C328.43 431.849 326.525 427.012 325.486 421.844C323.685 405.329 326.003 390.224 334.913 376.043C338.629 370.188 342.395 364.791 349.278 362.407C350.781 356.733 353.026 351.448 357.186 347.175C361.797 342.437 367.469 340.968 373.887 341.007Z"/>
	<path fill="#10002C" d="M334.913 376.043C334.904 376.331 334.904 376.618 334.887 376.905C334.653 380.765 330.455 387.293 329.051 391.287C323.17 408.016 327.693 429.491 338.778 443.134C344.212 449.822 351.811 455.518 360.618 456.399C368.109 457.148 375.316 454.24 380.936 449.413C389.218 442.3 396.194 429.603 396.935 418.727C397.236 414.312 395.965 406.46 397.361 402.735C399.732 413.306 399.157 424.196 395.282 434.334C394.181 437.215 392.669 439.887 391.516 442.723C387.049 449.357 381.566 454.909 374.104 458.093C366.359 461.398 357.757 461.237 350.021 457.982C340.55 453.996 334.156 446.072 330.397 436.723C328.43 431.849 326.525 427.012 325.486 421.844C323.685 405.329 326.003 390.224 334.913 376.043Z"/>
	<path fill="#FEFEFD" d="M373.887 341.007C382.174 343.119 388.553 346.32 393.141 353.908C396.361 359.234 397.764 365.261 398.638 371.361C397.686 377.94 396.272 383.143 392.784 388.837C391.358 390.435 389.748 391.956 388.027 393.237C383.037 396.948 376.974 399.018 370.73 397.991C364.222 396.921 358.4 392.759 354.549 387.494C349.036 379.959 347.952 371.437 349.278 362.407C350.781 356.733 353.026 351.448 357.186 347.175C361.797 342.437 367.469 340.968 373.887 341.007Z"/>
	<path fill="#240142" d="M586.843 335.201C602.019 333.336 618.9 339.256 631.673 347.031C653.241 360.16 667.597 383.807 673.315 407.986C679.262 433.135 674.824 460.725 661.06 482.625C647.691 503.894 628.601 515.744 604.467 521.164L603.874 521.242C584.178 523.678 565.234 517.691 549.767 505.47C529.577 489.516 518.146 466.003 515.233 440.716C512.175 414.161 519.47 384.674 536.338 363.697C549.146 347.769 566.398 337.348 586.843 335.201Z"/>
	<path fill="#FEFEFD" d="M599.213 343.107C599.377 343.1 599.541 343.088 599.705 343.088C614.792 343.115 632.369 354.451 642.864 364.499C660.879 381.748 669.695 406.566 670.057 431.19C670.392 454.027 661.284 477.6 645.247 493.948C629.759 509.735 609.873 516.323 588.097 516.529C582.289 516.536 576.098 514.563 570.773 512.381C582.359 513.98 592.97 513.825 603.978 509.412C623.107 501.742 637.522 484.763 645.388 466.083C655.799 441.36 655.391 412.711 645.154 388.012C635.743 365.308 621.667 352.363 599.213 343.107Z"/>
	<path fill="#0EA2E1" d="M533.405 459.839C537.675 460.699 542.14 461.24 546.309 462.474C552.476 470.459 559.664 476.455 570.04 477.636C577.772 478.516 585.588 475.646 591.556 470.792C594.051 468.761 596.381 466.401 598.26 463.787C603.169 464.441 608.028 466.905 612.763 468.374C619.815 470.562 628.539 471.857 635.925 472.216C627.132 486.225 616.944 497.711 601.386 504.252C589.596 509.209 576.711 510.065 564.775 505.099C545.648 497.14 534.84 480.313 527.217 461.867L533.405 459.839Z"/>
	<path fill="#0A358D" d="M521.46 429.652C521.229 425.644 521.449 421.565 521.873 417.576C524.162 396.021 534.054 371.518 551.412 357.72C561.387 349.791 572.916 345.882 585.667 347.406C602.678 349.44 618.501 358.208 629.061 371.699C640.558 386.385 648.931 410.005 646.69 428.77C642.65 427.998 638.656 427.341 634.74 426.042C626.203 423.21 616.836 417.6 607.662 418.024L606.328 413.98C604.877 407.915 602.015 400.712 597.204 396.597C594.13 402.485 590.071 407.653 584.093 410.817C578.151 413.962 571.03 414.733 564.651 412.498C556.591 409.674 552.326 403.664 548.676 396.38C544.262 399.505 541.968 405.297 540.728 410.417C539.26 415.541 538.869 420.795 537.643 425.945C534.226 425.942 525.043 424.253 522.83 426.966C522.231 427.7 521.833 428.795 521.46 429.652Z"/>
	<path fill="#FEFEFD" d="M548.676 396.38C545.362 387.561 545.5 378.111 549.405 369.485C552.617 362.39 558.304 356.485 565.73 353.834C571.809 351.664 578.264 351.919 584.061 354.801C591.266 358.384 596.434 365.334 598.821 372.916C601.264 380.675 600.462 389.195 597.204 396.597C594.13 402.485 590.071 407.653 584.093 410.817C578.151 413.962 571.03 414.733 564.651 412.498C556.591 409.674 552.326 403.664 548.676 396.38Z"/>
	<path fill="#240142" d="M540.728 410.417C541.968 405.297 544.262 399.505 548.676 396.38C552.326 403.664 556.591 409.674 564.651 412.498C571.03 414.733 578.151 413.962 584.093 410.817C590.071 407.653 594.13 402.485 597.204 396.597C602.015 400.712 604.877 407.915 606.328 413.98L607.662 418.024C616.836 417.6 626.203 423.21 634.74 426.042C638.656 427.341 642.65 427.998 646.69 428.77C646.178 444.003 643.799 458.923 635.925 472.216C628.539 471.857 619.815 470.562 612.763 468.374C608.028 466.905 603.169 464.441 598.26 463.787C596.381 466.401 594.051 468.761 591.556 470.792C585.588 475.646 577.772 478.516 570.04 477.636C559.664 476.455 552.476 470.459 546.309 462.474C542.14 461.24 537.675 460.699 533.405 459.839L527.217 461.867C523.701 451.278 521.774 440.814 521.46 429.652C521.833 428.795 522.231 427.7 522.83 426.966C525.043 424.253 534.226 425.942 537.643 425.945C538.869 420.795 539.26 415.541 540.728 410.417Z"/>
	<path fill="#10002C" d="M540.728 410.417C540.814 410.675 540.909 410.931 540.986 411.192C542.033 414.749 540.517 422.659 540.407 426.812C540.012 441.826 546.567 461.204 560.033 469.315C565.909 472.855 572.902 473.977 579.546 472.167C588.676 469.68 595.609 462.505 600.044 454.41C603.885 447.402 606.829 437.774 606.996 429.764C607.094 425.039 604.292 418.265 606.328 413.98L607.662 418.024C610.878 434.028 606.827 450.138 598.26 463.787C596.381 466.401 594.051 468.761 591.556 470.792C585.588 475.646 577.772 478.516 570.04 477.636C559.664 476.455 552.476 470.459 546.309 462.474C540.797 451.018 536.82 438.813 537.643 425.945C538.869 420.795 539.26 415.541 540.728 410.417Z"/>
	<path fill="#095FB8" d="M521.46 429.652C521.833 428.795 522.231 427.7 522.83 426.966C525.043 424.253 534.226 425.942 537.643 425.945C536.82 438.813 540.797 451.018 546.309 462.474C542.14 461.24 537.675 460.699 533.405 459.839L527.217 461.867C523.701 451.278 521.774 440.814 521.46 429.652Z"/>
	<path fill="#095FB8" d="M607.662 418.024C616.836 417.6 626.203 423.21 634.74 426.042C638.656 427.341 642.65 427.998 646.69 428.77C646.178 444.003 643.799 458.923 635.925 472.216C628.539 471.857 619.815 470.562 612.763 468.374C608.028 466.905 603.169 464.441 598.26 463.787C606.827 450.138 610.878 434.028 607.662 418.024Z"/>
</svg>
