<?xml version="1.0" encoding="utf-8" ?>
<svg xmlns="http://www.w3.org/2000/svg" xmlns:xlink="http://www.w3.org/1999/xlink" width="1024" height="1024">
	<path fill="#05495D" d="M551.113 144.229C557.645 149.218 564.14 154.292 571.178 158.56C543.35 187.025 526.716 233.291 521.008 272.116C519.206 284.376 518.647 296.893 518.541 309.271C518.306 308.675 518.097 308.079 517.936 307.457C515.921 299.702 516.49 289.989 516.173 281.959C515.774 271.834 516.432 261.884 517.162 251.791C520.254 209.048 530.029 181.278 551.113 144.229Z"/>
	<path fill="#1F98A5" d="M503.415 321.079C503.446 314.601 502.176 307.831 501.494 301.381C500.424 291.249 499.628 281.074 499.3 270.89C497.968 229.524 504.45 186.413 524.37 149.67C527.573 143.763 531.137 136.589 535.716 131.709C540.803 135.936 545.972 140.069 551.113 144.229C530.029 181.278 520.254 209.048 517.162 251.791C516.432 261.884 515.774 271.834 516.173 281.959C516.49 289.989 515.921 299.702 517.936 307.457C518.097 308.079 518.306 308.675 518.541 309.271C518.824 314.171 518.985 319.111 519.461 323.995L518.78 323.437C517.876 326.416 517.439 329.483 516.604 332.478C515.095 337.893 513.105 343.175 511.84 348.655C510.126 339.109 506.598 330.197 503.415 321.079Z"/>
	<path fill="#05495D" d="M302.485 225.751C309.848 230.857 317.082 235.934 325.987 237.911C341.205 241.289 357.409 237.212 372.642 235.832C410.161 232.433 449.752 249.225 474.669 277.249C482.309 285.841 489.408 295.598 495.067 305.608C497.903 310.623 500.194 316.346 503.415 321.079C506.598 330.197 510.126 339.109 511.84 348.655C511.904 350.281 511.979 351.905 512.004 353.532L510.619 354.04L510.16 353.923C503.244 349.632 495.955 345.853 488.993 341.596L374.917 272.069C356.884 261.207 338.422 250.946 320.734 239.533C316.427 236.754 304.688 229.94 302.485 225.751Z"/>
	<path fill="#64CFD0" d="M730.448 219.67C727.908 226.748 717.848 233.455 711.926 237.622C691.967 251.664 669.933 262.792 648.773 274.884L548.337 332.569L524.882 346.046C520.834 348.397 516.272 350.653 512.574 353.507L512.004 353.532C511.979 351.905 511.904 350.281 511.84 348.655C513.105 343.175 515.095 337.893 516.604 332.478C517.439 329.483 517.876 326.416 518.78 323.437L519.461 323.995C521.762 322.063 528.811 304.769 530.817 301.093C540.659 283.051 555.138 267.539 571.807 255.632C597.71 237.127 627.161 231.278 658.359 234.93C672.237 236.554 686.791 238.571 700.559 235.151C711.869 232.341 721.149 226.436 730.448 219.67Z"/>
	<path fill="#1F98A5" d="M730.448 219.67C735.942 213.737 740.606 207.464 744.575 200.414C743.292 241.855 722.693 279.187 692.972 307.219C688.586 311.356 683.847 315.078 679.129 318.824C654.638 334.465 639.947 341.094 612.451 350.491C612.315 350.5 612.18 350.508 612.045 350.518C603.88 351.165 595.676 353.962 587.564 355.293C581.137 356.347 574.634 357.37 568.133 357.818C555.125 358.715 525.539 358.266 514.005 354.03L513.109 353.708C512.93 353.643 512.752 353.574 512.574 353.507C516.272 350.653 520.834 348.397 524.882 346.046L548.337 332.569L648.773 274.884C669.933 262.792 691.967 251.664 711.926 237.622C717.848 233.455 727.908 226.748 730.448 219.67Z"/>
	<path fill="#1F98A5" d="M276.769 201.897C284.201 210.644 293.646 218.467 302.485 225.751C304.688 229.94 316.427 236.754 320.734 239.533C338.422 250.946 356.884 261.207 374.917 272.069L488.993 341.596C495.955 345.853 503.244 349.632 510.16 353.923C479.005 362.266 438.354 358.047 407.554 349.809C400.405 346.785 392.396 345.115 385.079 342.307C369.96 336.504 357.126 328.251 343.665 319.46C338.34 314.875 332.567 310.916 327.415 306.092C295.152 275.883 282.659 244.412 276.769 201.897Z"/>
	<path fill="#931D2D" d="M679.129 318.824C691.969 327.345 704.724 336.157 716.565 346.038C735.073 361.484 752.885 379.603 767.38 398.894C793.42 433.551 812.36 478.204 820.912 520.604C837.189 601.31 821.323 685.438 775.653 754.065C729.288 823.735 655.977 871.73 574.038 888.014C488.968 904.921 402.892 886.41 331.18 838.275C309.057 823.426 286.55 804.572 270.095 783.572C266.164 780.944 262.993 776.307 260.275 772.51C252.661 761.87 245.19 751.145 238.609 739.827C201.533 676.063 188.19 605.413 200.373 532.602C211.347 467.016 245.634 403.749 294.134 358.298C309.64 343.766 326.413 331.772 343.665 319.46C357.126 328.251 369.96 336.504 385.079 342.307C392.396 345.115 400.405 346.785 407.554 349.809C438.354 358.047 479.005 362.266 510.16 353.923L510.619 354.04L512.004 353.532L512.574 353.507C512.752 353.574 512.93 353.643 513.109 353.708L514.005 354.03C525.539 358.266 555.125 358.715 568.133 357.818C574.634 357.37 581.137 356.347 587.564 355.293C595.676 353.962 603.88 351.165 612.045 350.518C612.18 350.508 612.315 350.5 612.451 350.491C639.947 341.094 654.638 334.465 679.129 318.824Z"/>
	<path fill="#05495D" d="M612.451 350.491C663.375 374.391 714.231 404.686 748.284 450.648C751.62 455.15 755.17 459.689 758.062 464.491C706.096 481.465 644.626 478.891 595.56 454.013C591.237 451.821 586.983 449.463 582.737 447.125C581.048 457.554 580 468.058 577.819 478.406C570.678 512.293 555.034 543.818 533.029 570.495C526.856 577.978 519.736 587.161 512.007 593.058C512.503 582.536 511.978 571.827 511.886 561.283L511.549 505.075L512.004 353.532L512.574 353.507C512.752 353.574 512.93 353.643 513.109 353.708L514.005 354.03C525.539 358.266 555.125 358.715 568.133 357.818C574.634 357.37 581.137 356.347 587.564 355.293C595.676 353.962 603.88 351.165 612.045 350.518C612.18 350.508 612.315 350.5 612.451 350.491Z"/>
	<path fill="#F46338" d="M343.665 319.46C357.126 328.251 369.96 336.504 385.079 342.307C392.396 345.115 400.405 346.785 407.554 349.809C438.354 358.047 479.005 362.266 510.16 353.923L510.619 354.04L512.004 353.532L511.549 505.075L511.886 561.283C511.978 571.827 512.503 582.536 512.007 593.058L511.667 593.109C512.861 599.995 512.029 608.103 512.024 615.144L512.032 659.536L512.52 825.254C498.257 827.879 483.993 830.823 469.552 832.299C416.438 837.731 363.306 828.741 314.393 807.729C305.656 803.976 297.26 799.582 289.093 794.717C283.529 791.404 276.033 785.498 270.095 783.572C266.164 780.944 262.993 776.307 260.275 772.51C252.661 761.87 245.19 751.145 238.609 739.827C201.533 676.063 188.19 605.413 200.373 532.602C211.347 467.016 245.634 403.749 294.134 358.298C309.64 343.766 326.413 331.772 343.665 319.46Z"/>
	<path fill="#F5BF95" d="M354.976 586.546C357.963 586.426 360.458 586.582 363.257 587.723C367.752 589.555 371.26 593.13 372.976 597.675C374.515 601.751 374.465 606.262 372.568 610.21C370.043 615.464 365.684 617.662 360.453 619.452C356.961 619.851 353.748 619.675 350.483 618.247C346.432 616.475 343.306 613.056 341.789 608.914C340.174 604.503 340.463 599.652 342.64 595.486C345.339 590.32 349.647 588.145 354.976 586.546Z"/>
	<path fill="#F5BF95" d="M299.959 499.682C310.796 498.358 322.706 501.211 331.62 507.532C341.381 514.454 346.836 524.98 348.785 536.608C351.099 550.411 346.886 565.606 338.774 576.901C328.083 591.787 312.981 600.01 295.119 602.934C283.524 603.266 273.073 601.867 263.453 594.831C254.101 587.99 248.111 577.95 246.341 566.523C243.993 551.368 248.581 536.51 257.636 524.315C268.125 510.19 282.704 502.179 299.959 499.682Z"/>
	<path fill="#1F98A5" d="M407.554 349.809C438.354 358.047 479.005 362.266 510.16 353.923L510.619 354.04L512.004 353.532L511.549 505.075L511.886 561.283C511.978 571.827 512.503 582.536 512.007 593.058L511.667 593.109C505.366 588.2 499.658 581.778 494.41 575.771C464.009 540.979 445.248 495.267 438.797 449.783C430.497 453.243 422.725 457.828 414.493 461.424C394.762 470.044 372.649 475.124 351.256 477.017C326.836 479.178 301.824 477.159 278.834 468.297C275.512 467.017 270.5 465.437 267.849 463.038C266.984 462.254 267.07 462.048 267.056 460.952C295.614 419.919 329.27 388.839 373.678 365.436C384.731 359.612 396.539 355.551 407.554 349.809Z"/>
	<path fill="#64CFD0" d="M407.554 349.809C438.354 358.047 479.005 362.266 510.16 353.923L510.619 354.04C504.777 361.235 482.841 372.331 474.222 377.214C458.266 386.254 442.452 395.455 426.096 403.767C392.998 420.587 357.777 434.997 322.39 446.165C310.883 449.796 299.259 453.21 287.559 456.16C280.771 457.871 273.784 459.051 267.056 460.952C295.614 419.919 329.27 388.839 373.678 365.436C384.731 359.612 396.539 355.551 407.554 349.809Z"/>
</svg>
